<mxfile host="app.diagrams.net" agent="Mozilla/5.0 (X11; Linux x86_64; rv:137.0) Gecko/20100101 Firefox/137.0" version="27.0.5">
  <diagram name="Page-1" id="ZkmwMshLrLI9YVhARKpx">
    <mxGraphModel dx="1079" dy="1140" grid="1" gridSize="10" guides="1" tooltips="1" connect="1" arrows="1" fold="1" page="1" pageScale="1" pageWidth="850" pageHeight="1100" math="0" shadow="0">
      <root>
        <mxCell id="0" />
        <mxCell id="1" parent="0" />
        <mxCell id="5Tah5pjNTo-BN5TJBC6f-1" value="ConversationService" style="swimlane;fontStyle=1;align=center;verticalAlign=top;childLayout=stackLayout;horizontal=1;startSize=26;horizontalStack=0;resizeParent=1;resizeParentMax=0;resizeLast=0;collapsible=1;marginBottom=0;whiteSpace=wrap;html=1;" vertex="1" parent="1">
          <mxGeometry x="335" y="270" width="160" height="138" as="geometry" />
        </mxCell>
        <mxCell id="5Tah5pjNTo-BN5TJBC6f-7" value="llm_api_name" style="text;strokeColor=none;fillColor=none;align=left;verticalAlign=top;spacingLeft=4;spacingRight=4;overflow=hidden;rotatable=0;points=[[0,0.5],[1,0.5]];portConstraint=eastwest;whiteSpace=wrap;html=1;" vertex="1" parent="5Tah5pjNTo-BN5TJBC6f-1">
          <mxGeometry y="26" width="160" height="26" as="geometry" />
        </mxCell>
        <mxCell id="5Tah5pjNTo-BN5TJBC6f-2" value="&lt;div&gt;llm_api_key&lt;/div&gt;" style="text;strokeColor=none;fillColor=none;align=left;verticalAlign=top;spacingLeft=4;spacingRight=4;overflow=hidden;rotatable=0;points=[[0,0.5],[1,0.5]];portConstraint=eastwest;whiteSpace=wrap;html=1;" vertex="1" parent="5Tah5pjNTo-BN5TJBC6f-1">
          <mxGeometry y="52" width="160" height="26" as="geometry" />
        </mxCell>
        <mxCell id="5Tah5pjNTo-BN5TJBC6f-5" value="redis_url" style="text;strokeColor=none;fillColor=none;align=left;verticalAlign=top;spacingLeft=4;spacingRight=4;overflow=hidden;rotatable=0;points=[[0,0.5],[1,0.5]];portConstraint=eastwest;whiteSpace=wrap;html=1;" vertex="1" parent="5Tah5pjNTo-BN5TJBC6f-1">
          <mxGeometry y="78" width="160" height="26" as="geometry" />
        </mxCell>
        <mxCell id="5Tah5pjNTo-BN5TJBC6f-3" value="" style="line;strokeWidth=1;fillColor=none;align=left;verticalAlign=middle;spacingTop=-1;spacingLeft=3;spacingRight=3;rotatable=0;labelPosition=right;points=[];portConstraint=eastwest;strokeColor=inherit;" vertex="1" parent="5Tah5pjNTo-BN5TJBC6f-1">
          <mxGeometry y="104" width="160" height="8" as="geometry" />
        </mxCell>
        <mxCell id="5Tah5pjNTo-BN5TJBC6f-4" value="generate()" style="text;strokeColor=none;fillColor=none;align=left;verticalAlign=top;spacingLeft=4;spacingRight=4;overflow=hidden;rotatable=0;points=[[0,0.5],[1,0.5]];portConstraint=eastwest;whiteSpace=wrap;html=1;" vertex="1" parent="5Tah5pjNTo-BN5TJBC6f-1">
          <mxGeometry y="112" width="160" height="26" as="geometry" />
        </mxCell>
        <mxCell id="5Tah5pjNTo-BN5TJBC6f-8" value="EmbeddingService" style="swimlane;fontStyle=1;align=center;verticalAlign=top;childLayout=stackLayout;horizontal=1;startSize=26;horizontalStack=0;resizeParent=1;resizeParentMax=0;resizeLast=0;collapsible=1;marginBottom=0;whiteSpace=wrap;html=1;" vertex="1" parent="1">
          <mxGeometry x="155" y="270" width="160" height="138" as="geometry" />
        </mxCell>
        <mxCell id="5Tah5pjNTo-BN5TJBC6f-9" value="model_name" style="text;strokeColor=none;fillColor=none;align=left;verticalAlign=top;spacingLeft=4;spacingRight=4;overflow=hidden;rotatable=0;points=[[0,0.5],[1,0.5]];portConstraint=eastwest;whiteSpace=wrap;html=1;" vertex="1" parent="5Tah5pjNTo-BN5TJBC6f-8">
          <mxGeometry y="26" width="160" height="26" as="geometry" />
        </mxCell>
        <mxCell id="5Tah5pjNTo-BN5TJBC6f-10" value="" style="line;strokeWidth=1;fillColor=none;align=left;verticalAlign=middle;spacingTop=-1;spacingLeft=3;spacingRight=3;rotatable=0;labelPosition=right;points=[];portConstraint=eastwest;strokeColor=inherit;" vertex="1" parent="5Tah5pjNTo-BN5TJBC6f-8">
          <mxGeometry y="52" width="160" height="8" as="geometry" />
        </mxCell>
        <mxCell id="5Tah5pjNTo-BN5TJBC6f-11" value="load_docs()" style="text;strokeColor=none;fillColor=none;align=left;verticalAlign=top;spacingLeft=4;spacingRight=4;overflow=hidden;rotatable=0;points=[[0,0.5],[1,0.5]];portConstraint=eastwest;whiteSpace=wrap;html=1;" vertex="1" parent="5Tah5pjNTo-BN5TJBC6f-8">
          <mxGeometry y="60" width="160" height="26" as="geometry" />
        </mxCell>
        <mxCell id="5Tah5pjNTo-BN5TJBC6f-12" value="generate_embeddings()" style="text;strokeColor=none;fillColor=none;align=left;verticalAlign=top;spacingLeft=4;spacingRight=4;overflow=hidden;rotatable=0;points=[[0,0.5],[1,0.5]];portConstraint=eastwest;whiteSpace=wrap;html=1;" vertex="1" parent="5Tah5pjNTo-BN5TJBC6f-8">
          <mxGeometry y="86" width="160" height="26" as="geometry" />
        </mxCell>
        <mxCell id="5Tah5pjNTo-BN5TJBC6f-13" value="populate_db()" style="text;strokeColor=none;fillColor=none;align=left;verticalAlign=top;spacingLeft=4;spacingRight=4;overflow=hidden;rotatable=0;points=[[0,0.5],[1,0.5]];portConstraint=eastwest;whiteSpace=wrap;html=1;" vertex="1" parent="5Tah5pjNTo-BN5TJBC6f-8">
          <mxGeometry y="112" width="160" height="26" as="geometry" />
        </mxCell>
        <mxCell id="5Tah5pjNTo-BN5TJBC6f-14" value="VectorDB (Milvus)" style="swimlane;fontStyle=1;align=center;verticalAlign=top;childLayout=stackLayout;horizontal=1;startSize=26;horizontalStack=0;resizeParent=1;resizeParentMax=0;resizeLast=0;collapsible=1;marginBottom=0;whiteSpace=wrap;html=1;" vertex="1" parent="1">
          <mxGeometry x="850" y="570" width="160" height="60" as="geometry" />
        </mxCell>
        <mxCell id="5Tah5pjNTo-BN5TJBC6f-16" value="" style="line;strokeWidth=1;fillColor=none;align=left;verticalAlign=middle;spacingTop=-1;spacingLeft=3;spacingRight=3;rotatable=0;labelPosition=right;points=[];portConstraint=eastwest;strokeColor=inherit;" vertex="1" parent="5Tah5pjNTo-BN5TJBC6f-14">
          <mxGeometry y="26" width="160" height="8" as="geometry" />
        </mxCell>
        <mxCell id="5Tah5pjNTo-BN5TJBC6f-17" value="similarity_search()" style="text;strokeColor=none;fillColor=none;align=left;verticalAlign=top;spacingLeft=4;spacingRight=4;overflow=hidden;rotatable=0;points=[[0,0.5],[1,0.5]];portConstraint=eastwest;whiteSpace=wrap;html=1;" vertex="1" parent="5Tah5pjNTo-BN5TJBC6f-14">
          <mxGeometry y="34" width="160" height="26" as="geometry" />
        </mxCell>
        <mxCell id="5Tah5pjNTo-BN5TJBC6f-18" value="StateCache (Redis)" style="swimlane;fontStyle=1;align=center;verticalAlign=top;childLayout=stackLayout;horizontal=1;startSize=26;horizontalStack=0;resizeParent=1;resizeParentMax=0;resizeLast=0;collapsible=1;marginBottom=0;whiteSpace=wrap;html=1;" vertex="1" parent="1">
          <mxGeometry x="795" y="230" width="160" height="60" as="geometry" />
        </mxCell>
        <mxCell id="5Tah5pjNTo-BN5TJBC6f-19" value="" style="line;strokeWidth=1;fillColor=none;align=left;verticalAlign=middle;spacingTop=-1;spacingLeft=3;spacingRight=3;rotatable=0;labelPosition=right;points=[];portConstraint=eastwest;strokeColor=inherit;" vertex="1" parent="5Tah5pjNTo-BN5TJBC6f-18">
          <mxGeometry y="26" width="160" height="8" as="geometry" />
        </mxCell>
        <mxCell id="5Tah5pjNTo-BN5TJBC6f-20" value="restore_chat()" style="text;strokeColor=none;fillColor=none;align=left;verticalAlign=top;spacingLeft=4;spacingRight=4;overflow=hidden;rotatable=0;points=[[0,0.5],[1,0.5]];portConstraint=eastwest;whiteSpace=wrap;html=1;" vertex="1" parent="5Tah5pjNTo-BN5TJBC6f-18">
          <mxGeometry y="34" width="160" height="26" as="geometry" />
        </mxCell>
        <mxCell id="5Tah5pjNTo-BN5TJBC6f-21" value="McpServer" style="swimlane;fontStyle=1;align=center;verticalAlign=top;childLayout=stackLayout;horizontal=1;startSize=26;horizontalStack=0;resizeParent=1;resizeParentMax=0;resizeLast=0;collapsible=1;marginBottom=0;whiteSpace=wrap;html=1;" vertex="1" parent="1">
          <mxGeometry x="565" y="360" width="160" height="86" as="geometry" />
        </mxCell>
        <mxCell id="5Tah5pjNTo-BN5TJBC6f-22" value="" style="line;strokeWidth=1;fillColor=none;align=left;verticalAlign=middle;spacingTop=-1;spacingLeft=3;spacingRight=3;rotatable=0;labelPosition=right;points=[];portConstraint=eastwest;strokeColor=inherit;" vertex="1" parent="5Tah5pjNTo-BN5TJBC6f-21">
          <mxGeometry y="26" width="160" height="8" as="geometry" />
        </mxCell>
        <mxCell id="5Tah5pjNTo-BN5TJBC6f-23" value="create_schedule()" style="text;strokeColor=none;fillColor=none;align=left;verticalAlign=top;spacingLeft=4;spacingRight=4;overflow=hidden;rotatable=0;points=[[0,0.5],[1,0.5]];portConstraint=eastwest;whiteSpace=wrap;html=1;" vertex="1" parent="5Tah5pjNTo-BN5TJBC6f-21">
          <mxGeometry y="34" width="160" height="26" as="geometry" />
        </mxCell>
        <mxCell id="5Tah5pjNTo-BN5TJBC6f-25" value="plan_courses()" style="text;strokeColor=none;fillColor=none;align=left;verticalAlign=top;spacingLeft=4;spacingRight=4;overflow=hidden;rotatable=0;points=[[0,0.5],[1,0.5]];portConstraint=eastwest;whiteSpace=wrap;html=1;" vertex="1" parent="5Tah5pjNTo-BN5TJBC6f-21">
          <mxGeometry y="60" width="160" height="26" as="geometry" />
        </mxCell>
        <mxCell id="5Tah5pjNTo-BN5TJBC6f-50" value="vector_db" style="endArrow=block;endFill=1;html=1;edgeStyle=orthogonalEdgeStyle;align=left;verticalAlign=top;rounded=0;exitX=0.5;exitY=1;exitDx=0;exitDy=0;entryX=0.5;entryY=0;entryDx=0;entryDy=0;" edge="1" parent="1">
          <mxGeometry x="-0.875" relative="1" as="geometry">
            <mxPoint x="929.74" y="506" as="sourcePoint" />
            <mxPoint x="929.74" y="570" as="targetPoint" />
            <mxPoint as="offset" />
          </mxGeometry>
        </mxCell>
        <mxCell id="5Tah5pjNTo-BN5TJBC6f-51" value="1" style="edgeLabel;resizable=0;html=1;align=left;verticalAlign=bottom;" connectable="0" vertex="1" parent="5Tah5pjNTo-BN5TJBC6f-50">
          <mxGeometry x="-1" relative="1" as="geometry">
            <mxPoint y="54" as="offset" />
          </mxGeometry>
        </mxCell>
        <mxCell id="5Tah5pjNTo-BN5TJBC6f-52" value="GenAIFacade (ext. access)" style="swimlane;fontStyle=1;align=center;verticalAlign=top;childLayout=stackLayout;horizontal=1;startSize=26;horizontalStack=0;resizeParent=1;resizeParentMax=0;resizeLast=0;collapsible=1;marginBottom=0;whiteSpace=wrap;html=1;" vertex="1" parent="1">
          <mxGeometry x="245" y="440" width="160" height="86" as="geometry" />
        </mxCell>
        <mxCell id="5Tah5pjNTo-BN5TJBC6f-54" value="" style="line;strokeWidth=1;fillColor=none;align=left;verticalAlign=middle;spacingTop=-1;spacingLeft=3;spacingRight=3;rotatable=0;labelPosition=right;points=[];portConstraint=eastwest;strokeColor=inherit;" vertex="1" parent="5Tah5pjNTo-BN5TJBC6f-52">
          <mxGeometry y="26" width="160" height="8" as="geometry" />
        </mxCell>
        <mxCell id="5Tah5pjNTo-BN5TJBC6f-55" value="generate()" style="text;strokeColor=none;fillColor=none;align=left;verticalAlign=top;spacingLeft=4;spacingRight=4;overflow=hidden;rotatable=0;points=[[0,0.5],[1,0.5]];portConstraint=eastwest;whiteSpace=wrap;html=1;" vertex="1" parent="5Tah5pjNTo-BN5TJBC6f-52">
          <mxGeometry y="34" width="160" height="26" as="geometry" />
        </mxCell>
        <mxCell id="5Tah5pjNTo-BN5TJBC6f-63" value="embed()" style="text;strokeColor=none;fillColor=none;align=left;verticalAlign=top;spacingLeft=4;spacingRight=4;overflow=hidden;rotatable=0;points=[[0,0.5],[1,0.5]];portConstraint=eastwest;whiteSpace=wrap;html=1;" vertex="1" parent="5Tah5pjNTo-BN5TJBC6f-52">
          <mxGeometry y="60" width="160" height="26" as="geometry" />
        </mxCell>
        <mxCell id="5Tah5pjNTo-BN5TJBC6f-57" value="embedding_service" style="endArrow=block;endFill=1;html=1;edgeStyle=orthogonalEdgeStyle;align=left;verticalAlign=top;rounded=0;exitX=0;exitY=0.5;exitDx=0;exitDy=0;entryX=0;entryY=0.5;entryDx=0;entryDy=0;" edge="1" parent="1" target="5Tah5pjNTo-BN5TJBC6f-13">
          <mxGeometry x="-0.0597" y="1" relative="1" as="geometry">
            <mxPoint x="245" y="479" as="sourcePoint" />
            <mxPoint x="215" y="500" as="targetPoint" />
            <Array as="points">
              <mxPoint x="125" y="479" />
              <mxPoint x="125" y="395" />
            </Array>
            <mxPoint as="offset" />
          </mxGeometry>
        </mxCell>
        <mxCell id="5Tah5pjNTo-BN5TJBC6f-58" value="1" style="edgeLabel;resizable=0;html=1;align=left;verticalAlign=bottom;" connectable="0" vertex="1" parent="5Tah5pjNTo-BN5TJBC6f-57">
          <mxGeometry x="-1" relative="1" as="geometry">
            <mxPoint x="-110" y="-84" as="offset" />
          </mxGeometry>
        </mxCell>
        <mxCell id="5Tah5pjNTo-BN5TJBC6f-61" value="conversation_service" style="endArrow=block;endFill=1;html=1;edgeStyle=orthogonalEdgeStyle;align=left;verticalAlign=top;rounded=0;entryX=1;entryY=0.5;entryDx=0;entryDy=0;exitX=1;exitY=0.5;exitDx=0;exitDy=0;" edge="1" parent="1" target="5Tah5pjNTo-BN5TJBC6f-4">
          <mxGeometry x="-1" relative="1" as="geometry">
            <mxPoint x="405" y="479" as="sourcePoint" />
            <mxPoint x="585" y="470" as="targetPoint" />
            <Array as="points">
              <mxPoint x="535" y="479" />
              <mxPoint x="535" y="395" />
            </Array>
          </mxGeometry>
        </mxCell>
        <mxCell id="5Tah5pjNTo-BN5TJBC6f-62" value="1" style="edgeLabel;resizable=0;html=1;align=left;verticalAlign=bottom;" connectable="0" vertex="1" parent="5Tah5pjNTo-BN5TJBC6f-61">
          <mxGeometry x="-1" relative="1" as="geometry">
            <mxPoint x="100" y="-84" as="offset" />
          </mxGeometry>
        </mxCell>
        <mxCell id="5Tah5pjNTo-BN5TJBC6f-64" value="cache" style="endArrow=block;endFill=1;html=1;edgeStyle=orthogonalEdgeStyle;align=left;verticalAlign=top;rounded=0;exitX=1.008;exitY=0.177;exitDx=0;exitDy=0;entryX=0;entryY=0.25;entryDx=0;entryDy=0;exitPerimeter=0;" edge="1" parent="1" source="5Tah5pjNTo-BN5TJBC6f-88" target="5Tah5pjNTo-BN5TJBC6f-18">
          <mxGeometry x="-1" relative="1" as="geometry">
            <mxPoint x="660" y="380" as="sourcePoint" />
            <mxPoint x="820" y="380" as="targetPoint" />
          </mxGeometry>
        </mxCell>
        <mxCell id="5Tah5pjNTo-BN5TJBC6f-65" value="1" style="edgeLabel;resizable=0;html=1;align=left;verticalAlign=bottom;" connectable="0" vertex="1" parent="5Tah5pjNTo-BN5TJBC6f-64">
          <mxGeometry x="-1" relative="1" as="geometry">
            <mxPoint x="44" y="-5" as="offset" />
          </mxGeometry>
        </mxCell>
        <mxCell id="5Tah5pjNTo-BN5TJBC6f-66" value="mcp" style="endArrow=block;endFill=1;html=1;edgeStyle=orthogonalEdgeStyle;align=left;verticalAlign=top;rounded=0;exitX=1;exitY=0.5;exitDx=0;exitDy=0;entryX=0;entryY=0.25;entryDx=0;entryDy=0;" edge="1" parent="1" source="5Tah5pjNTo-BN5TJBC6f-5" target="5Tah5pjNTo-BN5TJBC6f-21">
          <mxGeometry x="-1" y="21" relative="1" as="geometry">
            <mxPoint x="515" y="340" as="sourcePoint" />
            <mxPoint x="675" y="340" as="targetPoint" />
            <mxPoint as="offset" />
          </mxGeometry>
        </mxCell>
        <mxCell id="5Tah5pjNTo-BN5TJBC6f-67" value="1" style="edgeLabel;resizable=0;html=1;align=left;verticalAlign=bottom;" connectable="0" vertex="1" parent="5Tah5pjNTo-BN5TJBC6f-66">
          <mxGeometry x="-1" relative="1" as="geometry">
            <mxPoint x="55" y="17" as="offset" />
          </mxGeometry>
        </mxCell>
        <mxCell id="5Tah5pjNTo-BN5TJBC6f-68" value="vector_db" style="endArrow=block;endFill=1;html=1;edgeStyle=orthogonalEdgeStyle;align=left;verticalAlign=top;rounded=0;exitX=0;exitY=0.5;exitDx=0;exitDy=0;entryX=0;entryY=0.5;entryDx=0;entryDy=0;" edge="1" parent="1" source="5Tah5pjNTo-BN5TJBC6f-11" target="5Tah5pjNTo-BN5TJBC6f-17">
          <mxGeometry x="-0.8999" y="7" relative="1" as="geometry">
            <mxPoint x="150" y="342.9999999999999" as="sourcePoint" />
            <mxPoint x="560" y="557" as="targetPoint" />
            <Array as="points">
              <mxPoint x="90" y="343" />
              <mxPoint x="90" y="617" />
            </Array>
            <mxPoint as="offset" />
          </mxGeometry>
        </mxCell>
        <mxCell id="5Tah5pjNTo-BN5TJBC6f-69" value="1" style="edgeLabel;resizable=0;html=1;align=left;verticalAlign=bottom;" connectable="0" vertex="1" parent="5Tah5pjNTo-BN5TJBC6f-68">
          <mxGeometry x="-1" relative="1" as="geometry">
            <mxPoint x="675" y="274" as="offset" />
          </mxGeometry>
        </mxCell>
        <mxCell id="5Tah5pjNTo-BN5TJBC6f-70" value="VectorDBResource" style="swimlane;fontStyle=1;align=center;verticalAlign=top;childLayout=stackLayout;horizontal=1;startSize=26;horizontalStack=0;resizeParent=1;resizeParentMax=0;resizeLast=0;collapsible=1;marginBottom=0;whiteSpace=wrap;html=1;" vertex="1" parent="1">
          <mxGeometry x="850" y="420" width="160" height="86" as="geometry" />
        </mxCell>
        <mxCell id="5Tah5pjNTo-BN5TJBC6f-82" value="connection_params" style="text;strokeColor=none;fillColor=none;align=left;verticalAlign=top;spacingLeft=4;spacingRight=4;overflow=hidden;rotatable=0;points=[[0,0.5],[1,0.5]];portConstraint=eastwest;whiteSpace=wrap;html=1;" vertex="1" parent="5Tah5pjNTo-BN5TJBC6f-70">
          <mxGeometry y="26" width="160" height="26" as="geometry" />
        </mxCell>
        <mxCell id="5Tah5pjNTo-BN5TJBC6f-72" value="" style="line;strokeWidth=1;fillColor=none;align=left;verticalAlign=middle;spacingTop=-1;spacingLeft=3;spacingRight=3;rotatable=0;labelPosition=right;points=[];portConstraint=eastwest;strokeColor=inherit;" vertex="1" parent="5Tah5pjNTo-BN5TJBC6f-70">
          <mxGeometry y="52" width="160" height="8" as="geometry" />
        </mxCell>
        <mxCell id="5Tah5pjNTo-BN5TJBC6f-83" value="exec()" style="text;strokeColor=none;fillColor=none;align=left;verticalAlign=top;spacingLeft=4;spacingRight=4;overflow=hidden;rotatable=0;points=[[0,0.5],[1,0.5]];portConstraint=eastwest;whiteSpace=wrap;html=1;" vertex="1" parent="5Tah5pjNTo-BN5TJBC6f-70">
          <mxGeometry y="60" width="160" height="26" as="geometry" />
        </mxCell>
        <mxCell id="5Tah5pjNTo-BN5TJBC6f-74" value="CoursePlannerTool" style="swimlane;fontStyle=1;align=center;verticalAlign=top;childLayout=stackLayout;horizontal=1;startSize=26;horizontalStack=0;resizeParent=1;resizeParentMax=0;resizeLast=0;collapsible=1;marginBottom=0;whiteSpace=wrap;html=1;" vertex="1" parent="1">
          <mxGeometry x="850" y="310" width="160" height="86" as="geometry" />
        </mxCell>
        <mxCell id="5Tah5pjNTo-BN5TJBC6f-75" value="connection_params" style="text;strokeColor=none;fillColor=none;align=left;verticalAlign=top;spacingLeft=4;spacingRight=4;overflow=hidden;rotatable=0;points=[[0,0.5],[1,0.5]];portConstraint=eastwest;whiteSpace=wrap;html=1;" vertex="1" parent="5Tah5pjNTo-BN5TJBC6f-74">
          <mxGeometry y="26" width="160" height="26" as="geometry" />
        </mxCell>
        <mxCell id="5Tah5pjNTo-BN5TJBC6f-76" value="" style="line;strokeWidth=1;fillColor=none;align=left;verticalAlign=middle;spacingTop=-1;spacingLeft=3;spacingRight=3;rotatable=0;labelPosition=right;points=[];portConstraint=eastwest;strokeColor=inherit;" vertex="1" parent="5Tah5pjNTo-BN5TJBC6f-74">
          <mxGeometry y="52" width="160" height="8" as="geometry" />
        </mxCell>
        <mxCell id="5Tah5pjNTo-BN5TJBC6f-77" value="exec()" style="text;strokeColor=none;fillColor=none;align=left;verticalAlign=top;spacingLeft=4;spacingRight=4;overflow=hidden;rotatable=0;points=[[0,0.5],[1,0.5]];portConstraint=eastwest;whiteSpace=wrap;html=1;" vertex="1" parent="5Tah5pjNTo-BN5TJBC6f-74">
          <mxGeometry y="60" width="160" height="26" as="geometry" />
        </mxCell>
        <mxCell id="5Tah5pjNTo-BN5TJBC6f-78" value="course_planner_tool" style="endArrow=block;endFill=1;html=1;edgeStyle=orthogonalEdgeStyle;align=left;verticalAlign=top;rounded=0;exitX=1;exitY=0.25;exitDx=0;exitDy=0;entryX=0;entryY=0.5;entryDx=0;entryDy=0;" edge="1" parent="1" source="5Tah5pjNTo-BN5TJBC6f-21" target="5Tah5pjNTo-BN5TJBC6f-75">
          <mxGeometry x="-1" relative="1" as="geometry">
            <mxPoint x="740" y="380" as="sourcePoint" />
            <mxPoint x="900" y="380" as="targetPoint" />
            <Array as="points">
              <mxPoint x="820" y="382" />
              <mxPoint x="820" y="349" />
            </Array>
          </mxGeometry>
        </mxCell>
        <mxCell id="5Tah5pjNTo-BN5TJBC6f-79" value="1" style="edgeLabel;resizable=0;html=1;align=left;verticalAlign=bottom;" connectable="0" vertex="1" parent="5Tah5pjNTo-BN5TJBC6f-78">
          <mxGeometry x="-1" relative="1" as="geometry">
            <mxPoint x="105" y="-33" as="offset" />
          </mxGeometry>
        </mxCell>
        <mxCell id="5Tah5pjNTo-BN5TJBC6f-80" value="vector_db_rsc" style="endArrow=block;endFill=1;html=1;edgeStyle=orthogonalEdgeStyle;align=left;verticalAlign=top;rounded=0;exitX=1;exitY=0.5;exitDx=0;exitDy=0;entryX=0;entryY=0.5;entryDx=0;entryDy=0;" edge="1" parent="1" source="5Tah5pjNTo-BN5TJBC6f-25">
          <mxGeometry x="-0.9338" y="3" relative="1" as="geometry">
            <mxPoint x="740" y="440" as="sourcePoint" />
            <mxPoint x="850" y="459" as="targetPoint" />
            <Array as="points">
              <mxPoint x="820" y="433" />
              <mxPoint x="820" y="459" />
            </Array>
            <mxPoint as="offset" />
          </mxGeometry>
        </mxCell>
        <mxCell id="5Tah5pjNTo-BN5TJBC6f-81" value="1" style="edgeLabel;resizable=0;html=1;align=left;verticalAlign=bottom;" connectable="0" vertex="1" parent="5Tah5pjNTo-BN5TJBC6f-80">
          <mxGeometry x="-1" relative="1" as="geometry">
            <mxPoint x="105" y="26" as="offset" />
          </mxGeometry>
        </mxCell>
        <mxCell id="5Tah5pjNTo-BN5TJBC6f-88" value="State" style="swimlane;fontStyle=1;align=center;verticalAlign=top;childLayout=stackLayout;horizontal=1;startSize=26;horizontalStack=0;resizeParent=1;resizeParentMax=0;resizeLast=0;collapsible=1;marginBottom=0;whiteSpace=wrap;html=1;" vertex="1" parent="1">
          <mxGeometry x="570" y="230" width="160" height="86" as="geometry" />
        </mxCell>
        <mxCell id="5Tah5pjNTo-BN5TJBC6f-89" value="history" style="text;strokeColor=none;fillColor=none;align=left;verticalAlign=top;spacingLeft=4;spacingRight=4;overflow=hidden;rotatable=0;points=[[0,0.5],[1,0.5]];portConstraint=eastwest;whiteSpace=wrap;html=1;" vertex="1" parent="5Tah5pjNTo-BN5TJBC6f-88">
          <mxGeometry y="26" width="160" height="26" as="geometry" />
        </mxCell>
        <mxCell id="5Tah5pjNTo-BN5TJBC6f-90" value="" style="line;strokeWidth=1;fillColor=none;align=left;verticalAlign=middle;spacingTop=-1;spacingLeft=3;spacingRight=3;rotatable=0;labelPosition=right;points=[];portConstraint=eastwest;strokeColor=inherit;" vertex="1" parent="5Tah5pjNTo-BN5TJBC6f-88">
          <mxGeometry y="52" width="160" height="8" as="geometry" />
        </mxCell>
        <mxCell id="5Tah5pjNTo-BN5TJBC6f-92" value="restore_chat()" style="text;strokeColor=none;fillColor=none;align=left;verticalAlign=top;spacingLeft=4;spacingRight=4;overflow=hidden;rotatable=0;points=[[0,0.5],[1,0.5]];portConstraint=eastwest;whiteSpace=wrap;html=1;" vertex="1" parent="5Tah5pjNTo-BN5TJBC6f-88">
          <mxGeometry y="60" width="160" height="26" as="geometry" />
        </mxCell>
        <mxCell id="5Tah5pjNTo-BN5TJBC6f-95" value="state" style="endArrow=block;endFill=1;html=1;edgeStyle=orthogonalEdgeStyle;align=left;verticalAlign=top;rounded=0;entryX=0;entryY=0.25;entryDx=0;entryDy=0;exitX=1.003;exitY=0.934;exitDx=0;exitDy=0;exitPerimeter=0;" edge="1" parent="1" source="5Tah5pjNTo-BN5TJBC6f-7" target="5Tah5pjNTo-BN5TJBC6f-88">
          <mxGeometry x="-1" relative="1" as="geometry">
            <mxPoint x="500" y="320" as="sourcePoint" />
            <mxPoint x="520" y="196" as="targetPoint" />
            <mxPoint as="offset" />
          </mxGeometry>
        </mxCell>
        <mxCell id="5Tah5pjNTo-BN5TJBC6f-96" value="1" style="edgeLabel;resizable=0;html=1;align=left;verticalAlign=bottom;" connectable="0" vertex="1" parent="5Tah5pjNTo-BN5TJBC6f-95">
          <mxGeometry x="-1" relative="1" as="geometry">
            <mxPoint x="50" y="-70" as="offset" />
          </mxGeometry>
        </mxCell>
      </root>
    </mxGraphModel>
  </diagram>
</mxfile>
